<svg width="40" height="40" viewBox="0 0 40 40" fill="none" xmlns="http://www.w3.org/2000/svg">
<path d="M29.3275 15.386C29.2802 15.2718 29.2001 15.1742 29.0973 15.1055C28.9946 15.0368 28.8737 15.0001 28.7501 15.0001H26.3728C26.0404 14.4346 25.5673 13.9647 24.9996 13.6362C24.4319 13.3076 23.7888 13.1315 23.1329 13.1251C22.6443 13.1187 22.1593 13.2101 21.7064 13.3939C21.2536 13.5777 20.8422 13.8502 20.4962 14.1954C20.1402 14.5448 19.8576 14.9618 19.6651 15.422C19.4725 15.8822 19.374 16.3762 19.3751 16.8751V17.3509C16.2298 16.5212 13.6572 13.9626 13.6298 13.9352C13.546 13.8506 13.4397 13.7918 13.3235 13.7655C13.2073 13.7393 13.086 13.7469 12.974 13.7872C12.8619 13.8276 12.7638 13.8992 12.691 13.9935C12.6183 14.0878 12.574 14.201 12.5634 14.3196C12.2267 18.0532 13.3111 20.5516 14.2822 21.9899C14.7557 22.7009 15.3317 23.338 15.9915 23.8805C14.8017 25.2501 12.9282 25.9696 12.9079 25.9774C12.8197 26.0104 12.7402 26.063 12.6751 26.1311C12.6101 26.1992 12.5613 26.2811 12.5324 26.3708C12.5034 26.4604 12.4951 26.5554 12.5081 26.6487C12.521 26.7419 12.5549 26.8311 12.6072 26.9094C12.6657 26.9969 12.9001 27.304 13.4728 27.5907C14.1806 27.9454 15.1157 28.1251 16.2501 28.1251C21.7712 28.1251 26.3845 23.8735 26.8556 18.4032L29.1923 16.0673C29.2797 15.9798 29.3392 15.8684 29.3632 15.7471C29.3873 15.6259 29.3748 15.5002 29.3275 15.386ZM25.8118 17.6837C25.7047 17.7911 25.6403 17.9338 25.6306 18.0852C25.3126 23.0141 21.1939 26.8751 16.2501 26.8751C15.4251 26.8751 14.8439 26.7657 14.4361 26.6344C15.3353 26.1462 16.5892 25.3063 17.3954 24.0969C17.4428 24.0258 17.475 23.9458 17.4902 23.8617C17.5053 23.7777 17.5031 23.6914 17.4836 23.6082C17.4642 23.525 17.4279 23.4467 17.3769 23.3782C17.326 23.3096 17.2616 23.2522 17.1876 23.2094C17.1509 23.1884 13.7572 21.1516 13.7501 15.7094C15.0001 16.7251 17.2853 18.3009 19.8962 18.7399C19.9857 18.755 20.0774 18.7504 20.1649 18.7265C20.2525 18.7026 20.3337 18.6599 20.4031 18.6014C20.4725 18.5428 20.5283 18.4699 20.5666 18.3877C20.6049 18.3054 20.6249 18.2158 20.6251 18.1251V16.8751C20.6244 16.5417 20.6904 16.2115 20.8192 15.904C20.948 15.5965 21.137 15.3178 21.3751 15.0844C21.6034 14.8558 21.8751 14.6752 22.1744 14.5533C22.4736 14.4315 22.7942 14.3709 23.1173 14.3751C24.1064 14.3876 25.0306 14.9907 25.4173 15.8759C25.4661 15.9871 25.5462 16.0818 25.6479 16.1483C25.7496 16.2147 25.8685 16.2501 25.99 16.2501H27.24L25.8118 17.6837Z" fill="white"/>
<circle cx="20" cy="20" r="19.5" stroke="white"/>
<circle cx="20" cy="20" r="19.5" stroke="white"/>
<circle cx="20" cy="20" r="19.5" stroke="white"/>
</svg>
